<mxfile host="app.diagrams.net" agent="Mozilla/5.0 (Windows NT 10.0; Win64; x64) AppleWebKit/537.36 (KHTML, like Gecko) Chrome/132.0.0.0 Safari/537.36" version="26.0.14">
  <diagram name="Page-1" id="1Alh2RnhFtXFrkMA-4BH">
    <mxGraphModel dx="1895" dy="533" grid="1" gridSize="10" guides="1" tooltips="1" connect="1" arrows="1" fold="1" page="1" pageScale="1" pageWidth="1100" pageHeight="850" math="0" shadow="0">
      <root>
        <mxCell id="0" />
        <mxCell id="1" parent="0" />
        <mxCell id="vco8sAPqAQCxUByLTXLI-19" value="" style="rounded=0;whiteSpace=wrap;html=1;fillColor=none;strokeWidth=1;" parent="1" vertex="1">
          <mxGeometry x="-900" y="220" width="200" height="320" as="geometry" />
        </mxCell>
        <mxCell id="vco8sAPqAQCxUByLTXLI-20" value="icache-if" style="shape=flexArrow;endArrow=classic;startArrow=classic;html=1;rounded=0;entryX=0;entryY=0.5;entryDx=0;entryDy=0;" parent="1" edge="1">
          <mxGeometry y="20" width="100" height="100" relative="1" as="geometry">
            <mxPoint x="-700" y="260" as="sourcePoint" />
            <mxPoint x="-620" y="260" as="targetPoint" />
            <mxPoint as="offset" />
          </mxGeometry>
        </mxCell>
        <mxCell id="1pROIjRkTkOrtO6HWuxO-11" value="alu" style="rounded=0;whiteSpace=wrap;html=1;" parent="1" vertex="1">
          <mxGeometry x="-1060" y="220" width="80" height="80" as="geometry" />
        </mxCell>
        <mxCell id="1pROIjRkTkOrtO6HWuxO-12" value="alu-if" style="shape=flexArrow;endArrow=classic;startArrow=classic;html=1;rounded=0;" parent="1" edge="1">
          <mxGeometry y="20" width="100" height="100" relative="1" as="geometry">
            <mxPoint x="-980" y="259.58" as="sourcePoint" />
            <mxPoint x="-900" y="259.58" as="targetPoint" />
            <mxPoint as="offset" />
          </mxGeometry>
        </mxCell>
        <mxCell id="1pROIjRkTkOrtO6HWuxO-13" value="pc-control-logic" style="rounded=0;whiteSpace=wrap;html=1;" parent="1" vertex="1">
          <mxGeometry x="-890" y="230" width="180" height="50" as="geometry" />
        </mxCell>
        <mxCell id="1pROIjRkTkOrtO6HWuxO-16" value="idecoder" style="rounded=0;whiteSpace=wrap;html=1;" parent="1" vertex="1">
          <mxGeometry x="-1060" y="460" width="80" height="80" as="geometry" />
        </mxCell>
        <mxCell id="1pROIjRkTkOrtO6HWuxO-17" value="idecoder-if" style="shape=flexArrow;endArrow=classic;startArrow=classic;html=1;rounded=0;" parent="1" edge="1">
          <mxGeometry y="-20" width="100" height="100" relative="1" as="geometry">
            <mxPoint x="-900" y="500" as="sourcePoint" />
            <mxPoint x="-980" y="500" as="targetPoint" />
            <mxPoint as="offset" />
          </mxGeometry>
        </mxCell>
        <mxCell id="1pROIjRkTkOrtO6HWuxO-30" value="dcache-if" style="shape=flexArrow;endArrow=classic;startArrow=classic;html=1;rounded=0;entryX=0;entryY=0.5;entryDx=0;entryDy=0;" parent="1" edge="1">
          <mxGeometry y="20" width="100" height="100" relative="1" as="geometry">
            <mxPoint x="-700" y="499.65999999999997" as="sourcePoint" />
            <mxPoint x="-620" y="499.65999999999997" as="targetPoint" />
            <mxPoint as="offset" />
          </mxGeometry>
        </mxCell>
        <mxCell id="1pROIjRkTkOrtO6HWuxO-33" value="state-machine" style="rounded=0;whiteSpace=wrap;html=1;" parent="1" vertex="1">
          <mxGeometry x="-1060" y="340" width="80" height="80" as="geometry" />
        </mxCell>
        <mxCell id="1pROIjRkTkOrtO6HWuxO-34" value="sm-if" style="shape=flexArrow;endArrow=classic;startArrow=classic;html=1;rounded=0;" parent="1" edge="1">
          <mxGeometry y="20" width="100" height="100" relative="1" as="geometry">
            <mxPoint x="-980" y="379.5799999999999" as="sourcePoint" />
            <mxPoint x="-900" y="379.5799999999999" as="targetPoint" />
            <mxPoint as="offset" />
          </mxGeometry>
        </mxCell>
        <mxCell id="L4KLDMNG50g_pIlz1amg-1" value="control-unit" style="text;html=1;align=center;verticalAlign=middle;resizable=0;points=[];autosize=1;strokeColor=none;fillColor=none;" parent="1" vertex="1">
          <mxGeometry x="-840" y="190" width="80" height="30" as="geometry" />
        </mxCell>
        <mxCell id="L4KLDMNG50g_pIlz1amg-2" value="others-control-logic" style="rounded=0;whiteSpace=wrap;html=1;" parent="1" vertex="1">
          <mxGeometry x="-890" y="280" width="180" height="250" as="geometry" />
        </mxCell>
        <mxCell id="E6LTQ-wxOmKpJpSQqAVp-1" value="icache" style="rounded=0;whiteSpace=wrap;html=1;" parent="1" vertex="1">
          <mxGeometry x="-620" y="220" width="80" height="80" as="geometry" />
        </mxCell>
        <mxCell id="E6LTQ-wxOmKpJpSQqAVp-2" value="axi-read-if" style="shape=flexArrow;endArrow=classic;startArrow=classic;html=1;rounded=0;entryX=0;entryY=0.5;entryDx=0;entryDy=0;" parent="1" edge="1">
          <mxGeometry y="20" width="100" height="100" relative="1" as="geometry">
            <mxPoint x="-540" y="259.5" as="sourcePoint" />
            <mxPoint x="-460" y="259.5" as="targetPoint" />
            <mxPoint as="offset" />
          </mxGeometry>
        </mxCell>
        <mxCell id="E6LTQ-wxOmKpJpSQqAVp-3" value="imem" style="rounded=0;whiteSpace=wrap;html=1;" parent="1" vertex="1">
          <mxGeometry x="-460" y="220" width="80" height="80" as="geometry" />
        </mxCell>
        <mxCell id="E6LTQ-wxOmKpJpSQqAVp-6" value="dcache" style="rounded=0;whiteSpace=wrap;html=1;" parent="1" vertex="1">
          <mxGeometry x="-620" y="460" width="80" height="80" as="geometry" />
        </mxCell>
        <mxCell id="E6LTQ-wxOmKpJpSQqAVp-7" value="axi-read-if" style="shape=flexArrow;endArrow=classic;startArrow=classic;html=1;rounded=0;entryX=0;entryY=0.5;entryDx=0;entryDy=0;" parent="1" edge="1">
          <mxGeometry y="20" width="100" height="100" relative="1" as="geometry">
            <mxPoint x="-540" y="470" as="sourcePoint" />
            <mxPoint x="-460" y="470" as="targetPoint" />
            <mxPoint as="offset" />
          </mxGeometry>
        </mxCell>
        <mxCell id="E6LTQ-wxOmKpJpSQqAVp-8" value="dmem" style="rounded=0;whiteSpace=wrap;html=1;" parent="1" vertex="1">
          <mxGeometry x="-460" y="460" width="80" height="80" as="geometry" />
        </mxCell>
        <mxCell id="E6LTQ-wxOmKpJpSQqAVp-9" value="axi-write-if" style="shape=flexArrow;endArrow=classic;startArrow=classic;html=1;rounded=0;entryX=0;entryY=0.5;entryDx=0;entryDy=0;" parent="1" edge="1">
          <mxGeometry y="20" width="100" height="100" relative="1" as="geometry">
            <mxPoint x="-540" y="520" as="sourcePoint" />
            <mxPoint x="-460" y="520" as="targetPoint" />
            <mxPoint as="offset" />
          </mxGeometry>
        </mxCell>
      </root>
    </mxGraphModel>
  </diagram>
</mxfile>
